<svg width="87" height="90" viewBox="0 0 87 90" fill="none" xmlns="http://www.w3.org/2000/svg">
<path d="M75.5482 80.6757V70.853C75.5881 69.2472 75.0353 67.6826 73.9946 66.457C71.0605 63.0009 60.9975 60.7904 57.0085 61.6394C53.8994 62.3013 51.7237 65.4231 49.5969 67.5459C41.3833 62.8846 34.5826 56.0975 29.9122 47.8999C32.039 45.7774 35.1673 43.6063 35.8306 40.503C36.6799 36.5282 34.4722 26.5294 31.0401 23.5835C29.8328 22.5474 28.2892 21.9847 26.6971 22.0003H16.8547C13.1045 22.0038 9.98446 25.3674 10.3259 29.1383C10.3003 61.6394 35.6754 87.25 68.3961 87.2243C72.1871 87.5665 75.5635 84.4308 75.5482 80.6757Z" stroke="#009933" stroke-width="5" stroke-linecap="round" stroke-linejoin="round"/>
</svg>
