<svg width="71" height="71" viewBox="0 0 71 71" fill="none" xmlns="http://www.w3.org/2000/svg">
<path d="M32 3H39.25C41.2521 3 42.875 4.62298 42.875 6.625V8.68686C42.875 10.2376 43.9157 11.5849 45.348 12.1795C46.7809 12.7744 48.4492 12.5477 49.5461 11.4507L51.0044 9.9923C52.42 8.57663 54.7153 8.57663 56.1309 9.9923L61.2574 15.1188C62.6733 16.5345 62.6729 18.8297 61.2574 20.2454L59.7994 21.7036C58.7021 22.8006 58.4755 24.469 59.0704 25.9018C59.6649 27.3342 61.0123 28.375 62.5635 28.375H64.625C66.6271 28.375 68.25 29.9979 68.25 32V39.25C68.25 41.2521 66.6271 42.875 64.625 42.875H62.5631C61.0123 42.875 59.6653 43.9157 59.0704 45.348C58.4755 46.7809 58.7021 48.4492 59.7994 49.5461L61.2574 51.0044C62.6733 52.42 62.6733 54.7153 61.2574 56.1309L56.1309 61.2574C54.7153 62.6733 52.42 62.6733 51.0044 61.2574L49.5461 59.7994C48.4492 58.7021 46.7809 58.4755 45.348 59.0704C43.9157 59.6653 42.875 61.0123 42.875 62.5631V64.625C42.875 66.6271 41.2521 68.25 39.25 68.25H32C29.9979 68.25 28.375 66.6271 28.375 64.625V62.5635C28.375 61.0123 27.3342 59.6649 25.9018 59.0704C24.469 58.4755 22.8006 58.7021 21.7036 59.7994L20.2453 61.2574C18.8296 62.6733 16.5344 62.6733 15.1188 61.2574L9.99223 56.1309C8.57659 54.7153 8.57659 52.42 9.99223 51.0044L11.4507 49.5461C12.5477 48.4492 12.7744 46.7809 12.1795 45.348C11.5849 43.9157 10.2376 42.875 8.68686 42.875H6.625C4.62298 42.875 3 41.2521 3 39.25V32C3 29.9979 4.62298 28.375 6.625 28.375H8.68679C10.2376 28.375 11.5849 27.3342 12.1796 25.9019C12.7744 24.4691 12.5477 22.8008 11.4507 21.7038L9.9923 20.2454C8.57663 18.8297 8.57663 16.5345 9.9923 15.1188L15.1188 9.9923C16.5345 8.57666 18.8297 8.57666 20.2454 9.9923L21.7038 11.4507C22.8008 12.5477 24.4691 12.7744 25.9019 12.1796C27.3342 11.5849 28.375 10.2376 28.375 8.68675V6.625C28.375 4.62298 29.9979 3 32 3Z" stroke="#009933" stroke-width="5"/>
<path d="M42.875 35.625C42.875 39.6292 39.6292 42.875 35.625 42.875C31.6208 42.875 28.375 39.6292 28.375 35.625C28.375 31.6208 31.6208 28.375 35.625 28.375C39.6292 28.375 42.875 31.6208 42.875 35.625Z" stroke="#009933" stroke-width="5"/>
</svg>
