<svg width="20" height="13" viewBox="0 0 20 13" fill="none" xmlns="http://www.w3.org/2000/svg">
<path d="M9.99991 5.7265L19.1285 0.39C18.7615 0.139499 18.3158 0.00279568 17.8571 0H2.14277C1.68401 0.00279568 1.23834 0.139499 0.871338 0.39L9.99991 5.7265Z" fill="#00A32E"/>
<path d="M10.3857 7.04599L10.2643 7.09799H10.2071C10.1414 7.12473 10.0715 7.14226 10 7.14999C9.94071 7.15679 9.88072 7.15679 9.82143 7.14999H9.76429L9.64286 7.09799L0.0714285 1.46899C0.0256986 1.62599 0.00170336 1.78758 0 1.94999V11.05C0 11.5672 0.225765 12.0632 0.627628 12.4288C1.02949 12.7945 1.57454 13 2.14286 13H17.8571C18.4255 13 18.9705 12.7945 19.3724 12.4288C19.7742 12.0632 20 11.5672 20 11.05V1.94999C19.9983 1.78758 19.9743 1.62599 19.9286 1.46899L10.3857 7.04599Z" fill="#00A32E"/>
</svg>
